<svg version="1" xmlns="http://www.w3.org/2000/svg" width="682.667" height="682.667" viewBox="0 0 512.000000 512.000000"><path d="M378 208.5c0 107.9-.1 113.7-1.7 113-10.3-3.9-36.8-5.1-49.8-2.2-26.5 6-46.3 20.1-55.4 39.7-10.2 21.8-3.2 47.6 17.3 63.9 16.9 13.4 34.8 19.4 58.6 19.4 18.6 0 31.8-3.2 45.9-10.9 14.4-7.9 24.1-17.8 30.3-30.9l3.3-7 .3-122.8.2-122.7 2.3.5c4.8 1.1 21.9 4.8 35.2 7.6 7.7 1.6 14.8 3.2 15.7 3.5 1.7.5 1.8-.8 1.8-21 0-11.9-.3-21.6-.8-21.6-.7 0-18-3.7-49.4-10.6-13.3-2.9-32.9-7.2-51-11.1l-2.8-.6v113.8zM55 131v35h280V96H55v35z"/><path d="M55 252v35h280v-70H55v35zM55 371v35h176v-70H55v35z"/></svg>