<svg version="1" xmlns="http://www.w3.org/2000/svg" width="682.667" height="682.667" viewBox="0 0 512.000000 512.000000"><path d="M378 208.6c0 107.8-.1 113.6-1.7 112.9-10.3-3.9-36.8-5.1-49.8-2.2-26.5 6-46.3 20.1-55.4 39.7-10.2 21.8-3.2 47.6 17.3 63.9 16.9 13.4 34.8 19.4 58.6 19.4 18.6 0 31.8-3.2 45.9-10.9 14.4-7.9 24.1-17.8 30.3-30.9l3.3-7 .3-122.8.2-122.7 2.3.5c2.6.6 16.2 3.5 34.7 7.5 7.4 1.6 14.5 3.2 15.8 3.6l2.2.6v-42.9l-8.2-1.8c-4.6-.9-14.1-3-21.3-4.6-7.1-1.5-22.4-4.9-34-7.4-11.5-2.5-25-5.4-30-6.5-4.9-1.1-9.3-2-9.7-2-.5 0-.8 51.1-.8 113.6zM55 131v35h280V96H55v35z"/><path d="M55 252v35h280v-70H55v35zM55 371v35h176v-70H55v35z"/></svg>